<svg width="24" height="22" viewBox="0 0 24 22" fill="none" xmlns="http://www.w3.org/2000/svg">
<path d="M9.91667 17.6667H2.33334C1.14167 17.6667 0.166672 16.6917 0.166672 15.5V2.50001C0.166672 1.30834 1.14167 0.333344 2.33334 0.333344H3.41667L5.58334 4.66668H8.83334L6.66667 0.333344H8.83334L11 4.66668H14.25L12.0833 0.333344H14.25L16.4167 4.66668H19.6667L17.5 0.333344H21.8333V10.0833C21.2917 9.21668 20.5333 8.45834 19.6667 7.91668V6.83334H4.28334L2.33334 3.04168V15.5H9.05C9.26667 16.2583 9.48334 17.0167 9.91667 17.6667ZM19.9917 16.475C20.425 15.7167 20.75 14.85 20.75 13.875C20.75 11.1667 18.5833 9.00001 15.875 9.00001C13.1667 9.00001 11 11.1667 11 13.875C11 16.5833 13.1667 18.75 15.875 18.75C16.85 18.75 17.7167 18.5333 18.475 17.9917L21.8333 21.35L23.35 19.8333L19.9917 16.475ZM15.875 16.5833C14.3583 16.5833 13.1667 15.3917 13.1667 13.875C13.1667 12.3583 14.3583 11.1667 15.875 11.1667C17.3917 11.1667 18.5833 12.3583 18.5833 13.875C18.5833 15.3917 17.3917 16.5833 15.875 16.5833Z" fill="black"/>
</svg>
